HIERARCHY
ROOT hip
{
  OFFSET 0 0 0
  CHANNELS 6 Xposition Yposition Zposition Zrotation Yrotation Xrotation
  JOINT abdomen
  {
    OFFSET 0 20.6881 -0.73152
    CHANNELS 3 Zrotation Xrotation Yrotation
    JOINT chest
    {
      OFFSET 0 11.7043 -0.48768
      CHANNELS 3 Zrotation Xrotation Yrotation
      JOINT neck
      {
        OFFSET 0 22.1894 -2.19456
        CHANNELS 3 Zrotation Xrotation Yrotation
        JOINT head
        {
          OFFSET -0.24384 7.07133 1.2192
          CHANNELS 3 Zrotation Xrotation Yrotation
          JOINT leftEye
          {
            OFFSET 4.14528 8.04674 8.04672
            CHANNELS 3 Zrotation Xrotation Yrotation
            End Site
            {
              OFFSET 1 0 0
            }
          }
          JOINT rightEye
          {
            OFFSET -3.6576 8.04674 8.04672
            CHANNELS 3 Zrotation Xrotation Yrotation
            End Site
            {
              OFFSET 1 0 0
            }
          }
        }
      }
      JOINT rCollar
      {
        OFFSET -2.68224 19.2634 -4.8768
        CHANNELS 3 Zrotation Xrotation Yrotation
        JOINT rShldr
        {
          OFFSET -8.77824 -1.95073 1.46304
          CHANNELS 3 Zrotation Xrotation Yrotation
          JOINT rForeArm
          {
            OFFSET -28.1742 -1.7115 0.48768
            CHANNELS 3 Zrotation Xrotation Yrotation
            JOINT rHand
            {
              OFFSET -22.5879 0.773209 7.07136
              CHANNELS 3 Zrotation Xrotation Yrotation
              JOINT rThumb1
              {
                OFFSET -1.2192 -0.487915 3.41376
                CHANNELS 3 Zrotation Xrotation Yrotation
                JOINT rThumb2
                {
                  OFFSET -3.37035 -0.52449 3.41376
                  CHANNELS 3 Zrotation Xrotation Yrotation
                  End Site
                  {
                    OFFSET -1.78271 -1.18214 1.43049
                  }
                }
              }
              JOINT rIndex1
              {
                OFFSET -7.75947 0.938293 5.60832
                CHANNELS 3 Zrotation Xrotation Yrotation
                JOINT rIndex2
                {
                  OFFSET -2.54057 -0.884171 1.56538
                  CHANNELS 3 Zrotation Xrotation Yrotation
                  End Site
                  {
                    OFFSET -1.62519 -0.234802 1.16502
                  }
                }
              }
              JOINT rMid1
              {
                OFFSET -8.24714 1.18213 3.41376
                CHANNELS 3 Zrotation Xrotation Yrotation
                JOINT rMid2
                {
                  OFFSET -3.10165 -0.590103 1.0647
                  CHANNELS 3 Zrotation Xrotation Yrotation
                  End Site
                  {
                    OFFSET -2.48547 -0.328903 0.83742
                  }
                }
              }
              JOINT rRing1
              {
                OFFSET -8.82822 0.546677 1.51678
                CHANNELS 3 Zrotation Xrotation Yrotation
                JOINT rRing2
                {
                  OFFSET -2.60934 -0.819778 -0.0198488
                  CHANNELS 3 Zrotation Xrotation Yrotation
                  End Site
                  {
                    OFFSET -2.33842 -0.294052 0.168128
                  }
                }
              }
              JOINT rPinky1
              {
                OFFSET -8.27202 -0.0477905 -0.4584
                CHANNELS 3 Zrotation Xrotation Yrotation
                JOINT rPinky2
                {
                  OFFSET -1.82734 -0.647385 -0.700984
                  CHANNELS 3 Zrotation Xrotation Yrotation
                  End Site
                  {
                    OFFSET -1.69225 -0.51767 -0.607171
                  }
                }
              }
            }
          }
        }
      }
      JOINT lCollar
      {
        OFFSET 2.68224 19.2634 -4.8768
        CHANNELS 3 Zrotation Xrotation Yrotation
        JOINT lShldr
        {
          OFFSET 8.77824 -1.95073 1.46304
          CHANNELS 3 Zrotation Xrotation Yrotation
          JOINT lForeArm
          {
            OFFSET 28.1742 -1.7115 0.48768
            CHANNELS 3 Zrotation Xrotation Yrotation
            JOINT lHand
            {
              OFFSET 22.5879 0.773209 7.07136
              CHANNELS 3 Zrotation Xrotation Yrotation
              JOINT lThumb1
              {
                OFFSET 1.2192 -0.487915 3.41376
                CHANNELS 3 Zrotation Xrotation Yrotation
                JOINT lThumb2
                {
                  OFFSET 3.37035 -0.52449 3.41376
                  CHANNELS 3 Zrotation Xrotation Yrotation
                  End Site
                  {
                    OFFSET 1.78271 -1.18214 1.43049
                  }
                }
              }
              JOINT lIndex1
              {
                OFFSET 7.75947 0.938293 5.60832
                CHANNELS 3 Zrotation Xrotation Yrotation
                JOINT lIndex2
                {
                  OFFSET 2.54057 -0.884171 1.56538
                  CHANNELS 3 Zrotation Xrotation Yrotation
                  End Site
                  {
                    OFFSET 1.62519 -0.234802 1.16502
                  }
                }
              }
              JOINT lMid1
              {
                OFFSET 8.24714 1.18213 3.41376
                CHANNELS 3 Zrotation Xrotation Yrotation
                JOINT lMid2
                {
                  OFFSET 3.10165 -0.590103 1.0647
                  CHANNELS 3 Zrotation Xrotation Yrotation
                  End Site
                  {
                    OFFSET 2.48547 -0.328903 0.83742
                  }
                }
              }
              JOINT lRing1
              {
                OFFSET 8.82822 0.546677 1.51678
                CHANNELS 3 Zrotation Xrotation Yrotation
                JOINT lRing2
                {
                  OFFSET 2.60934 -0.819778 -0.0198488
                  CHANNELS 3 Zrotation Xrotation Yrotation
                  End Site
                  {
                    OFFSET 2.33842 -0.294052 0.168128
                  }
                }
              }
              JOINT lPinky1
              {
                OFFSET 8.27202 -0.0477905 -0.4584
                CHANNELS 3 Zrotation Xrotation Yrotation
                JOINT lPinky2
                {
                  OFFSET 1.82734 -0.647385 -0.700984
                  CHANNELS 3 Zrotation Xrotation Yrotation
                  End Site
                  {
                    OFFSET 1.69225 -0.51767 -0.607171
                  }
                }
              }
            }
          }
        }
      }
    }
  }
  JOINT rButtock
  {
    OFFSET -8.77824 4.35084 1.2192
    CHANNELS 3 Zrotation Xrotation Yrotation
    JOINT rThigh
    {
      OFFSET 0 -1.70687 -2.19456
      CHANNELS 3 Zrotation Xrotation Yrotation
      JOINT rShin
      {
        OFFSET 0 -36.8199 0.73152
        CHANNELS 3 Zrotation Xrotation Yrotation
        JOINT rFoot
        {
          OFFSET 0.73152 -45.1104 -5.12064
          CHANNELS 3 Zrotation Xrotation Yrotation
          End Site
          {
            OFFSET -1.1221 -3.69964 12.103
          }
        }
      }
    }
  }
  JOINT lButtock
  {
    OFFSET 8.77824 4.35084 1.2192
    CHANNELS 3 Zrotation Xrotation Yrotation
    JOINT lThigh
    {
      OFFSET 0 -1.70687 -2.19456
      CHANNELS 3 Zrotation Xrotation Yrotation
      JOINT lShin
      {
        OFFSET 0 -36.8199 0.73152
        CHANNELS 3 Zrotation Xrotation Yrotation
        JOINT lFoot
        {
          OFFSET -0.73152 -45.1104 -5.12064
          CHANNELS 3 Zrotation Xrotation Yrotation
          End Site
          {
            OFFSET 1.1221 -3.69964 12.103
          }
        }
      }
    }
  }
}
MOTION
Frames:	9
Frame Time:	0.03333
0.0 0.0 0.0 0.0 0.0 0.0 0.0 0.0 0.0 0.0 0.0 0.0 0.0 0.0 0.0 0.0 0.0 0.0 0.0 0.0 0.0 0.0 0.0 0.0 0.0 0.0 0.0 0.0 0.0 0.0 0.0 0.0 0.0 0.0 0.0 0.0 0.0 0.0 0.0 0.0 0.0 0.0 0.0 0.0 0.0 0.0 0.0 0.0 0.0 0.0 0.0 0.0 0.0 0.0 0.0 0.0 0.0 0.0 0.0 0.0 0.0 0.0 0.0 0.0 0.0 0.0 0.0 0.0 0.0 0.0 0.0 0.0 0.0 0.0 0.0 0.0 0.0 0.0 0.0 0.0 0.0 0.0 0.0 0.0 0.0 0.0 0.0 0.0 0.0 0.0 0.0 0.0 0.0 0.0 0.0 0.0 0.0 0.0 0.0 0.0 0.0 0.0 0.0 0.0 0.0 0.0 0.0 0.0 0.0 0.0 0.0 0.0 0.0 0.0 0.0 0.0 0.0 0.0 0.0 0.0 0.0 0.0 0.0 0.0 0.0 0.0 0.0 0.0 0.0 0.0 0.0 0.0
-0.8392000000000001 59.0552 -5.6159 -168.075874 12.9958 174.116673 3.632938 28.82907 -1.620872 1.342582 -8.46229 20.076416 -9.210822 16.72232 -21.382143 19.4509 -21.894705 7.650203 -0.000834 -0.0 0.004057 -0.000962 0.0 -0.002819 -143.333656 38.770747 147.773913 -107.252901 46.087288 74.219129 24.060488 -45.622586 -70.618425 164.687889 -21.802612 144.018734 -121.36454 30.329489 71.957847 172.560401 -34.472053 77.009562 -69.681121 43.292702 57.342766 -172.309793 -22.880785 112.981164 -156.222067 6.265588 140.787283 5.246799 -5.856592 -0.319032 0.00076 -0.018719 -0.004487 9.235067 12.71938 1.663664 8.368396 26.42649 7.364465 2.294298 0.871719 0.14812 -1.696247 -70.103155 16.506069 141.570575 5.646754 132.017079 -68.450887 72.757056 141.923468 -172.789928 -8.727857 -144.922699 -178.339542 -19.018774 -88.987874 142.604997 12.428222 -75.651003 108.428577 34.161005 -91.742499 177.896225 -33.712697 -113.975024 89.835866 60.702635 -81.262685 163.826623 -7.043979 -143.377522 0.014626 -1.323309 0.414854 140.268515 60.456008 -154.529077 172.941551 83.28881 144.301329 6.57225 -17.446165 8.019757 -0.0 0.000203 0.001057 -2.361947 -25.161231 -123.955869 -87.402204 -14.329495 -144.756365 -85.028664 -8.510119 -145.694564 -0.001911 -0.001187 -0.000956 31.242985 -65.631814 180.0 51.877815 -67.100081 19.345581 -14.653618 -16.22852 -154.077115
-1.0659 59.8125 -8.4422 -170.184571 21.144595 172.852701 -0.43687 27.66983 19.490375 -1.875489 -7.421727 4.137429 7.403211 22.767732 86.241258 -31.652227 4.780877 -99.676182 0.002693 0.0 0.003644 -0.003065 0.0 -0.003429 -151.972356 14.764067 157.371294 138.564078 -6.177198 161.24973 88.383763 -16.39991 66.273308 -167.668651 52.971604 143.617409 -3.030284 2.964226 0.541091 -147.928157 -56.674424 118.265036 -140.762192 1.380508 116.229518 -80.369382 57.006017 60.826509 -151.475648 17.841605 137.538967 3.075677 0.692645 0.432665 -145.120685 1.12126 -179.48084 11.94168 33.473386 -5.207879 4.28064 12.353175 3.878094 -151.805786 26.557355 -146.733205 157.847082 -65.803799 -175.511754 67.803118 -31.313709 56.938944 80.485574 -28.881192 96.207262 -36.968013 -62.96437 -23.888478 173.975796 -11.643601 -89.881969 152.685905 4.52903 -80.220366 134.541234 10.540677 -112.293569 104.049341 52.510945 -81.081155 10.976277 25.789626 -7.641066 163.642212 -6.192567 -143.474828 145.118847 0.185523 179.186487 -12.064265 35.787122 4.945585 145.396488 12.779003 142.021682 155.963985 37.912647 146.083653 0.001974 -0.000473 0.001974 -5.37547 -21.160983 -0.0 67.491503 72.34875 40.58016 83.163279 68.20793 166.017471 -179.995806 75.750115 -0.003701 -162.415913 13.253216 85.30734 60.00204 -13.87444 -1.947606 -121.832011 -51.442383 102.346847
-1.2264000000000002 60.335300000000004 -11.3652 -172.030454 28.779449 171.511587 -1.338577 21.667102 -176.378685 1.730736 2.497276 -155.803139 -13.566537 27.781344 -94.845679 32.510506 17.653245 83.305503 0.002485 0.0 0.005621 -0.003115 0.0 -0.001506 1.619569 -11.047521 -2.298667 -107.749064 -26.725113 -178.74164 -171.106741 -1.860467 -126.638146 -6.689147 32.42309 2.351443 -78.030419 38.688647 42.413028 22.229277 -25.458718 20.032744 -138.492276 4.896006 114.864891 -80.580681 56.841171 60.698034 -0.056608 0.168081 0.031727 86.238698 -78.350208 57.501905 0.000203 -0.018309 -0.007145 -156.360029 -46.139812 177.529456 1.484071 4.003263 1.36107 2.425367 0.059112 0.031367 6.042803 25.599123 -7.234342 -59.954944 37.201603 -23.922581 177.239204 41.887705 -98.300605 -176.084052 -13.56376 -143.47326 160.052085 2.213239 -88.877776 -10.501594 -52.407922 -18.270143 -21.122062 -37.641696 5.92143 162.540975 -21.307608 -111.41731 39.288615 53.366237 -32.877755 162.828765 -3.95748 -143.160867 72.135195 72.974901 -89.989554 158.689818 -28.058771 179.871997 145.543777 13.245908 142.146551 24.205017 -39.108124 25.596145 0.0 0.000877 -0.000123 -6.470066 -19.592857 -32.602575 -74.82368 54.900923 -5.936082 124.115508 38.206369 -6.943562 0.000442 0.000877 0.000221 36.561522 -48.916792 139.958957 49.668642 -16.776573 156.609032 121.305785 -2.811513 -114.905574
-1.4954 60.51990000000001 -14.1337 -172.8727 35.440286 170.540145 -1.541316 24.90527 0.0 -2.349633 -7.00926 29.781395 -13.099969 27.655839 -97.171441 29.664248 18.414248 90.36271 -0.000182 -0.0 0.001234 0.000217 0.0 0.002363 -155.57806 -3.999276 161.941953 -47.552056 0.568159 -0.255621 2.088317 3.874456 -89.833485 158.136318 -35.630254 139.273054 1.17808 -1.165737 -0.169219 -1.637437 1.722896 0.578527 -46.209083 39.652865 36.317985 3.899837 4.297403 -1.836988 -160.888809 -7.33767 143.345338 -163.325516 -4.880258 142.974589 -0.013794 -1.323054 -0.416534 -155.844683 -10.255101 173.079739 39.985936 85.641389 -0.897444 8.924303 22.92765 4.466304 155.54824 -3.804405 -161.899589 -177.211349 62.145149 -123.632595 124.32987 -15.905134 -138.363079 -147.66826 -65.73723 -125.953709 169.145925 -6.826404 -89.915718 -178.440937 -17.780274 -93.36392 158.404167 -30.155583 -122.603949 86.986339 56.418936 -69.7679 -173.120973 -66.297514 -137.612008 -2.680059 1.052947 -0.400836 0.000613 -0.018485 0.005976 -10.328207 0.039617 0.061421 80.939806 -51.228614 79.35952 -42.282972 80.373221 4.894223 -3e-06 -0.001473 4e-06 -8.193147 -18.079501 -24.888878 -81.760715 65.089164 -72.056652 64.076691 -18.496494 139.979429 -179.990866 75.750111 -0.00625 -146.782755 22.429505 -104.627241 -50.393172 -2.34579 -34.704428 113.542618 0.792552 -132.176082
-1.6393000000000002 60.501000000000005 -16.6459 -173.221171 39.645812 170.264889 0.119826 23.250127 1.85281 -2.959787 -6.434862 27.697722 5.727673 17.024056 59.386819 -19.229264 -5.993099 -61.971871 0.001229 -0.0 -0.000658 0.001577 0.0 0.000444 -159.221306 -48.724948 170.567701 -18.125759 18.095636 -35.713769 178.568803 39.654602 -119.357025 -10.589971 40.63076 3.487367 -166.745524 -4.418219 89.780489 -172.739144 -11.067655 88.53068 -140.164882 2.325961 115.877099 -169.126762 -26.700506 118.438192 -12.842559 28.99717 9.149814 -114.194991 59.264656 104.696311 -145.119904 0.267612 -179.212737 -155.547292 1.233192 -179.383335 12.99191 44.343861 10.759344 14.737961 44.095914 8.273382 -0.163287 -0.990014 0.2187 -22.993053 -66.210401 57.617586 -66.363086 -2.820275 10.78685 104.555287 66.514311 -82.133024 0.441294 0.43538 -0.069802 -48.952153 -71.327451 13.038208 148.88596 -12.609574 -120.24533 47.823077 55.082302 -32.723572 36.034382 51.723572 -29.832083 167.178246 -17.349812 -144.132365 70.379492 -72.130639 87.279682 150.37304 25.961241 -172.84414 -26.974027 80.122648 -10.136692 -0.358326 -2.661982 1.780819 -179.997903 75.751167 -0.002163 164.313229 57.047666 -43.997145 -80.57127 23.701013 -8.052037 -151.875095 -60.911471 -63.277341 -179.998118 75.750038 0.0 -142.908479 22.85405 180.0 -31.736851 -45.175591 -104.735188 -124.446011 -7.37999 103.964634
-1.8727 60.177800000000005 -18.7698 -172.764877 40.840667 170.427967 0.999272 18.031311 178.174593 2.154322 1.692672 -150.190549 7.006024 29.084697 135.069538 -19.659623 26.042453 -129.794433 0.001462 0.0 0.003473 0.001765 -0.0 -0.002149 -155.577448 -3.999328 161.941957 -52.126122 -76.449837 -8.724542 -72.917263 -76.486046 -15.942915 -3.873033 22.113148 1.458948 83.254192 -50.259312 33.614975 -159.136463 -28.07545 127.363229 4.607324 -7.831125 -2.381811 17.665835 -7.383724 -1.442369 -141.110861 35.602318 129.176071 -153.838823 19.918668 138.409434 -0.01521 -1.323019 -0.416728 7.021001 29.716035 4.675097 -135.07108 -13.383264 -132.467822 -145.690036 7.781885 -140.862534 -0.000208 -0.000102 -0.001094 -76.232508 0.1656 17.863788 -2.524249 9.317723 -40.766173 7.753543 3.703441 1.967029 93.743327 37.964393 -53.548965 -175.802865 -42.42361 -75.614365 -24.07465 -42.306824 5.560333 1.292811 23.022303 -4.23193 -3.342254 -10.179878 1.635352 -91.945623 -78.571779 -62.98567 -0.003659 1.771523 -0.555621 -9.019636 13.406609 -1.766267 144.263066 9.236988 141.009953 9.535595 -23.331887 12.083673 0.000634 0.001645 -0.000816 -10.978705 -15.212848 -3.126957 0.29347 73.02603 31.972661 158.137851 -43.776616 68.206959 -179.778231 75.749174 -0.170927 -142.506971 24.231591 77.916436 57.670132 -5.746764 88.467293 42.027247 -0.366889 -163.74633
-2.0989 59.78489999999999 -20.691300000000002 -172.771477 39.475008 169.623907 1.164376 23.539915 -0.420608 -0.768962 -6.722452 24.861743 9.131444 23.619068 100.902889 -25.993311 11.60039 -95.448509 0.000931 0.0 0.004772 0.000968 -0.0 -0.000852 -150.168514 21.53523 155.275312 101.659594 -53.939031 136.975143 -171.475971 37.403234 77.208726 158.599608 -35.981912 139.113354 -4.504629 4.380878 0.859339 -25.093065 20.291411 24.337501 -2.686135 4.226681 1.584339 1.95205 12.377584 2.281718 -89.835755 60.702061 81.26259 -7.215936 26.18433 6.250049 0.000212 -0.018614 -0.005156 10.316351 0.212611 -0.041244 -144.259668 9.236892 -141.011437 -148.31321 14.099497 -142.247122 9.651628 34.836124 -11.199556 100.270576 -29.479698 -159.678726 74.295067 -49.474642 124.521129 -131.389284 -68.010493 -112.249231 7.550836 7.246704 -1.624742 -30.204766 -41.11095 12.081076 13.87083 18.81506 -9.290997 162.794697 -12.22537 -110.347661 0.057616 0.167993 -0.03087 -3.166751 0.194109 0.001264 72.349874 72.97563 -90.217638 159.827474 -1.689396 -176.466846 -9.028646 28.890961 -7.894448 152.842534 29.115734 147.032713 -179.924484 75.750091 -0.058204 158.516306 59.982427 -61.989391 -85.99385 5.186055 -63.459877 83.586626 -38.713047 156.414105 179.99992 75.751191 -0.0 -142.690652 23.817807 -0.0 13.164617 49.590143 -82.577195 63.690417 56.799958 -14.225235
-2.2224 59.5421 -22.4216 -172.548167 37.308972 168.783787 2.181907 24.355548 -0.817323 0.153101 -7.157597 22.554531 -7.447677 15.009178 -20.658408 17.448534 -14.024708 28.269547 0.003298 0.0 0.003192 -0.002429 -0.0 0.003366 -150.120013 21.701367 155.220282 -40.907651 -11.970827 27.884055 62.776119 25.015071 -132.571578 177.932354 15.982247 147.958764 51.060239 -41.203591 12.856936 -16.086116 -5.932982 -15.792519 -151.927625 -18.231316 121.314534 -159.014579 -11.055003 119.532342 68.984171 -80.153903 40.577265 -164.210159 -6.979612 143.377673 -0.021614 -1.7251 -0.542828 -23.249529 72.960455 36.419227 -3.811244 -9.064397 -3.56153 2.675135 0.019057 0.010817 155.614166 -4.236432 -161.990921 -121.928053 -3.558621 -159.533061 -8.186559 -10.456998 -31.56278 9.621603 34.674422 -2.261828 99.395161 37.100958 -57.491451 -11.439319 -25.604258 -24.397381 145.906639 -7.260085 -118.949177 -82.245835 -69.144758 -31.468853 39.290518 53.365496 -32.878506 144.944544 36.217819 -132.094753 0.013706 -1.323104 0.416215 15.516916 69.59235 -28.534911 144.108914 8.782638 140.873216 -46.459238 79.967546 10.0793 -0.000939 -0.000845 0.001207 -12.265387 -12.200409 -180.0 -41.913289 -77.004427 -123.208001 -126.016289 -38.638324 176.629978 179.99883 75.749376 0.001032 -143.851228 22.422685 -14.829769 11.928904 62.536993 123.984691 -158.440585 39.004183 119.652698
